<svg id="svg" version="1.1" xmlns="http://www.w3.org/2000/svg" xmlns:xlink="http://www.w3.org/1999/xlink" width="400" height="400" viewBox="0, 0, 400,400"><g id="svgg"><path id="path0" d="M191.800 70.691 C 191.140 71.035,190.510 71.451,190.400 71.615 C 189.465 73.008,185.969 73.245,167.600 73.158 C 151.006 73.079,149.259 73.133,147.800 73.773 C 146.920 74.159,145.525 74.572,144.700 74.690 C 143.875 74.809,143.200 75.031,143.200 75.184 C 143.200 75.788,137.821 76.400,132.508 76.400 L 126.909 76.400 126.661 78.207 C 126.081 82.437,125.127 82.947,116.900 83.426 L 112.400 83.687 112.400 84.994 C 112.400 88.662,111.239 89.972,107.647 90.358 L 105.400 90.600 105.279 92.700 C 105.213 93.855,105.007 94.800,104.822 94.800 C 104.638 94.800,104.382 95.219,104.253 95.731 C 103.951 96.934,102.451 97.600,100.045 97.600 L 98.127 97.600 97.860 106.481 C 97.508 118.210,96.884 119.588,91.920 119.598 L 90.840 119.600 90.720 147.300 C 90.591 177.153,90.649 176.373,88.476 177.294 C 87.795 177.582,83.395 177.810,76.500 177.913 C 69.971 178.010,65.600 178.229,65.600 178.457 C 65.600 178.667,64.790 179.603,63.800 180.539 C 62.810 181.474,62.000 182.545,62.000 182.919 C 62.000 183.294,61.840 183.600,61.643 183.600 C 60.312 183.600,60.265 229.242,61.595 230.481 C 62.038 230.894,62.400 231.385,62.400 231.572 C 62.400 231.760,63.127 232.204,64.015 232.560 C 65.296 233.072,65.787 233.571,66.386 234.967 L 67.141 236.729 77.271 236.907 C 88.513 237.104,88.943 237.174,89.916 238.951 C 90.554 240.116,90.607 245.591,90.707 320.100 L 90.813 400.000 123.800 400.000 L 156.787 400.000 156.893 319.900 C 156.974 259.673,157.116 239.541,157.469 238.755 C 158.184 237.163,158.813 237.090,173.300 236.906 L 186.801 236.735 187.062 235.100 C 187.409 232.931,189.370 231.003,191.591 230.648 C 193.399 230.359,193.700 229.901,194.165 226.733 C 194.476 224.614,195.496 223.688,197.932 223.314 C 201.049 222.836,200.801 224.487,200.795 204.286 C 200.788 184.220,200.803 184.400,199.179 184.400 C 196.331 184.400,194.458 182.809,194.140 180.119 L 193.895 178.054 177.047 177.927 C 158.476 177.787,157.985 177.722,157.306 175.293 C 156.779 173.411,156.938 131.955,157.476 130.746 C 157.734 130.166,158.498 129.447,159.173 129.148 C 159.848 128.849,160.400 128.469,160.400 128.302 C 160.400 128.136,161.904 128.000,163.741 128.000 C 165.579 128.000,168.189 127.884,169.541 127.743 L 172.000 127.486 172.000 126.169 C 172.000 121.167,172.388 121.034,187.590 120.800 L 200.600 120.600 200.600 98.400 L 200.600 76.200 198.411 75.933 C 197.207 75.786,196.157 75.471,196.078 75.233 C 195.998 74.995,195.706 74.800,195.429 74.800 C 194.548 74.800,193.458 73.226,193.225 71.619 L 193.000 70.067 191.800 70.691 " stroke="none" fill="#fcfcfc" fill-rule="evenodd"></path><path id="path1" d="M168.600 67.236 C 146.005 67.487,142.400 67.654,142.400 68.445 C 142.400 68.640,142.175 68.800,141.900 68.801 C 141.625 68.801,140.889 69.610,140.265 70.597 C 138.599 73.234,136.607 74.000,131.409 74.000 C 125.858 74.000,125.121 74.309,120.761 78.465 C 119.694 79.482,117.142 80.417,113.900 80.977 C 113.075 81.120,112.400 81.408,112.400 81.618 C 112.400 81.828,112.145 82.000,111.833 82.000 C 111.194 82.000,108.000 84.930,108.000 85.515 C 108.000 85.723,107.268 86.378,106.374 86.970 C 104.425 88.259,102.491 90.298,102.169 91.400 C 101.975 92.066,100.375 93.566,98.600 94.747 C 96.148 96.377,95.810 97.374,95.579 103.653 C 95.440 107.418,95.191 109.758,94.911 109.932 C 94.665 110.084,94.333 110.746,94.173 111.404 C 93.817 112.874,92.512 114.800,91.873 114.801 C 91.613 114.801,90.860 115.656,90.200 116.700 L 89.000 118.599 88.891 142.500 C 88.821 157.719,88.640 166.400,88.391 166.400 C 88.174 166.400,88.000 167.639,88.000 169.186 C 88.000 172.073,86.522 174.800,84.959 174.800 C 84.651 174.800,84.400 174.953,84.400 175.140 C 84.400 175.328,79.449 175.578,73.397 175.696 C 60.930 175.940,61.002 175.923,59.612 179.067 C 58.802 180.897,56.759 183.194,54.850 184.421 L 53.899 185.032 53.911 207.416 L 53.923 229.800 55.069 230.400 C 56.614 231.208,59.997 234.729,60.013 235.545 C 60.028 236.355,60.939 237.600,61.516 237.600 C 61.751 237.600,62.245 237.902,62.615 238.272 C 63.199 238.857,64.715 238.973,74.289 239.172 L 85.292 239.400 86.646 240.967 C 87.391 241.828,88.000 242.773,88.000 243.067 C 88.000 243.360,88.180 243.600,88.400 243.600 C 88.665 243.600,88.800 269.933,88.800 321.800 L 88.800 400.000 89.807 400.000 L 90.813 400.000 90.707 320.100 C 90.607 245.591,90.554 240.116,89.916 238.951 C 88.943 237.174,88.513 237.104,77.271 236.907 L 67.141 236.729 66.386 234.967 C 65.787 233.571,65.296 233.072,64.015 232.560 C 63.127 232.204,62.400 231.760,62.400 231.572 C 62.400 231.385,62.038 230.894,61.595 230.481 C 60.265 229.242,60.312 183.600,61.643 183.600 C 61.840 183.600,62.000 183.294,62.000 182.919 C 62.000 182.545,62.810 181.474,63.800 180.539 C 64.790 179.603,65.600 178.667,65.600 178.457 C 65.600 178.229,69.971 178.010,76.500 177.913 C 83.395 177.810,87.795 177.582,88.476 177.294 C 90.649 176.373,90.591 177.153,90.720 147.300 L 90.840 119.600 91.920 119.598 C 96.884 119.588,97.508 118.210,97.860 106.481 L 98.127 97.600 100.045 97.600 C 102.451 97.600,103.951 96.934,104.253 95.731 C 104.382 95.219,104.638 94.800,104.822 94.800 C 105.007 94.800,105.213 93.855,105.279 92.700 L 105.400 90.600 107.647 90.358 C 111.239 89.972,112.400 88.662,112.400 84.994 L 112.400 83.687 116.900 83.426 C 125.127 82.947,126.081 82.437,126.661 78.207 L 126.909 76.400 132.508 76.400 C 137.821 76.400,143.200 75.788,143.200 75.184 C 143.200 75.031,143.875 74.809,144.700 74.690 C 145.525 74.572,146.920 74.159,147.800 73.773 C 149.259 73.133,151.006 73.079,167.600 73.158 C 185.975 73.245,189.471 73.008,190.400 71.612 C 190.510 71.447,191.185 71.012,191.900 70.646 L 193.200 69.979 193.200 71.336 C 193.200 72.775,194.484 74.800,195.396 74.800 C 195.691 74.800,195.998 74.995,196.078 75.233 C 196.157 75.471,197.207 75.786,198.411 75.933 L 200.600 76.200 200.600 98.400 L 200.600 120.600 187.590 120.800 C 172.388 121.034,172.000 121.167,172.000 126.169 L 172.000 127.486 169.541 127.743 C 168.189 127.884,165.579 128.000,163.741 128.000 C 161.904 128.000,160.400 128.136,160.400 128.302 C 160.400 128.469,159.848 128.849,159.173 129.148 C 158.498 129.447,157.734 130.166,157.476 130.746 C 156.938 131.955,156.779 173.411,157.306 175.293 C 157.985 177.722,158.476 177.787,177.047 177.927 L 193.895 178.054 194.140 180.119 C 194.458 182.809,196.331 184.400,199.179 184.400 C 200.803 184.400,200.788 184.220,200.795 204.286 C 200.801 224.487,201.049 222.836,197.932 223.314 C 195.496 223.688,194.476 224.614,194.165 226.733 C 193.700 229.901,193.399 230.359,191.591 230.648 C 189.370 231.003,187.409 232.931,187.062 235.100 L 186.801 236.735 173.300 236.906 C 158.813 237.090,158.184 237.163,157.469 238.755 C 157.116 239.541,156.974 259.673,156.893 319.900 L 156.787 400.000 157.993 400.000 L 159.200 400.000 159.200 321.960 C 159.200 235.525,158.990 242.261,161.749 240.292 C 162.965 239.425,163.357 239.394,175.915 239.200 C 185.193 239.056,188.912 238.868,189.120 238.530 C 189.280 238.271,190.283 237.839,191.350 237.571 C 193.003 237.155,193.378 236.873,193.882 235.667 C 194.490 234.210,195.288 233.211,198.400 230.007 C 200.440 227.906,201.498 226.584,203.207 224.000 L 204.397 222.200 204.398 203.672 L 204.400 185.144 203.200 183.400 C 202.540 182.441,202.000 181.463,202.000 181.228 C 202.000 180.993,201.848 180.800,201.663 180.800 C 201.478 180.800,200.998 180.191,200.597 179.446 C 199.854 178.066,197.845 176.993,194.200 176.028 C 193.212 175.766,186.916 175.604,177.743 175.602 C 164.907 175.600,162.854 175.518,162.655 175.000 C 162.529 174.670,162.162 174.400,161.840 174.400 C 161.518 174.400,160.837 173.815,160.327 173.100 L 159.400 171.800 159.400 155.800 C 159.400 135.906,159.506 134.859,161.737 132.647 L 163.400 131.000 167.721 130.796 L 172.041 130.593 173.921 128.518 C 174.954 127.377,176.261 125.914,176.825 125.267 L 177.849 124.090 189.025 124.276 C 205.898 124.558,204.397 127.074,204.399 98.512 L 204.400 76.823 203.123 75.012 C 202.421 74.015,201.704 73.200,201.530 73.200 C 201.192 73.200,199.597 71.868,197.219 69.600 C 195.819 68.264,193.095 66.703,192.486 66.887 C 192.329 66.934,181.580 67.091,168.600 67.236 " stroke="none" fill="#ececec" fill-rule="evenodd"></path><path id="path2" d="M142.000 64.371 C 140.392 64.691,137.200 67.616,137.200 68.769 C 137.200 70.233,135.681 70.672,129.854 70.892 C 126.803 71.008,124.193 71.268,124.054 71.471 C 123.914 71.673,123.006 72.071,122.036 72.355 C 119.808 73.006,117.200 74.635,117.200 75.376 C 117.200 76.169,115.406 77.492,113.881 77.823 C 113.177 77.975,112.510 78.216,112.400 78.357 C 112.290 78.498,111.300 78.846,110.200 79.129 C 107.747 79.762,106.472 80.560,106.022 81.741 C 105.834 82.236,104.897 83.150,103.940 83.773 C 101.842 85.139,99.200 87.850,99.200 88.636 C 99.200 88.949,98.721 89.609,98.135 90.103 C 97.550 90.596,96.707 91.405,96.263 91.900 C 95.819 92.395,95.234 92.800,94.964 92.800 C 93.655 92.800,92.602 96.459,92.546 101.200 C 92.491 105.911,92.187 108.000,91.557 108.000 C 91.360 108.000,91.192 108.225,91.181 108.500 C 91.171 108.775,90.476 109.540,89.636 110.200 C 88.796 110.860,87.886 111.940,87.612 112.600 C 85.720 117.166,85.833 115.404,85.610 143.810 C 85.406 169.918,85.379 170.642,84.600 171.470 C 83.828 172.292,83.415 172.326,72.600 172.461 L 61.400 172.600 59.572 173.675 C 57.857 174.683,57.116 175.759,56.241 178.515 C 56.116 178.908,55.443 179.538,54.745 179.915 C 52.731 181.003,50.002 183.845,49.981 184.877 C 49.686 199.183,50.130 230.245,50.645 231.325 C 51.194 232.475,52.643 233.441,54.878 234.144 C 55.250 234.262,56.105 235.492,56.776 236.879 C 57.613 238.607,58.469 239.713,59.499 240.396 C 60.324 240.944,61.107 241.541,61.239 241.721 C 61.370 241.902,66.732 242.173,73.154 242.325 C 82.888 242.554,84.893 242.700,85.209 243.200 C 85.444 243.573,85.590 273.405,85.594 321.900 L 85.600 400.000 87.200 400.000 L 88.800 400.000 88.800 321.800 C 88.800 269.933,88.665 243.600,88.400 243.600 C 88.180 243.600,88.000 243.360,88.000 243.067 C 88.000 242.773,87.391 241.828,86.646 240.967 L 85.292 239.400 74.289 239.172 C 64.715 238.973,63.199 238.857,62.615 238.272 C 62.245 237.902,61.751 237.600,61.516 237.600 C 60.939 237.600,60.028 236.355,60.013 235.545 C 59.997 234.729,56.614 231.208,55.069 230.400 L 53.923 229.800 53.911 207.416 L 53.899 185.032 54.850 184.421 C 56.759 183.194,58.802 180.897,59.612 179.067 C 61.002 175.923,60.930 175.940,73.397 175.696 C 79.449 175.578,84.400 175.328,84.400 175.140 C 84.400 174.953,84.651 174.800,84.959 174.800 C 86.522 174.800,88.000 172.073,88.000 169.186 C 88.000 167.639,88.174 166.400,88.391 166.400 C 88.640 166.400,88.821 157.719,88.891 142.500 L 89.000 118.599 90.200 116.700 C 90.860 115.656,91.613 114.801,91.873 114.801 C 92.512 114.800,93.817 112.874,94.173 111.404 C 94.333 110.746,94.665 110.084,94.911 109.932 C 95.191 109.758,95.440 107.418,95.579 103.653 C 95.810 97.374,96.148 96.377,98.600 94.747 C 100.375 93.566,101.975 92.066,102.169 91.400 C 102.491 90.298,104.425 88.259,106.374 86.970 C 107.268 86.378,108.000 85.723,108.000 85.515 C 108.000 84.930,111.194 82.000,111.833 82.000 C 112.145 82.000,112.400 81.828,112.400 81.618 C 112.400 81.408,113.075 81.120,113.900 80.977 C 117.142 80.417,119.694 79.482,120.761 78.465 C 125.121 74.309,125.858 74.000,131.409 74.000 C 136.607 74.000,138.599 73.234,140.265 70.597 C 140.889 69.610,141.625 68.801,141.900 68.801 C 142.175 68.800,142.400 68.641,142.400 68.446 C 142.400 67.522,149.573 67.204,171.026 67.177 C 195.587 67.147,194.567 67.053,197.226 69.600 C 199.565 71.841,201.190 73.200,201.530 73.200 C 201.704 73.200,202.421 74.015,203.123 75.012 L 204.400 76.823 204.399 98.512 C 204.397 127.074,205.898 124.558,189.025 124.276 L 177.849 124.090 176.825 125.267 C 176.261 125.914,174.954 127.377,173.921 128.518 L 172.041 130.593 167.721 130.796 L 163.400 131.000 161.737 132.647 C 159.506 134.859,159.400 135.906,159.400 155.800 L 159.400 171.800 160.327 173.100 C 160.837 173.815,161.518 174.400,161.840 174.400 C 162.162 174.400,162.529 174.670,162.655 175.000 C 162.854 175.518,164.907 175.600,177.743 175.602 C 186.916 175.604,193.212 175.766,194.200 176.028 C 197.845 176.993,199.854 178.066,200.597 179.446 C 200.998 180.191,201.478 180.800,201.663 180.800 C 201.848 180.800,202.000 180.993,202.000 181.228 C 202.000 181.463,202.540 182.441,203.200 183.400 L 204.400 185.144 204.398 203.672 L 204.397 222.200 203.207 224.000 C 201.498 226.584,200.440 227.906,198.400 230.007 C 195.288 233.211,194.490 234.210,193.882 235.667 C 193.378 236.873,193.003 237.155,191.350 237.571 C 190.283 237.839,189.280 238.271,189.120 238.530 C 188.912 238.868,185.193 239.056,175.915 239.200 C 163.357 239.394,162.965 239.425,161.749 240.292 C 158.990 242.261,159.200 235.525,159.200 321.960 L 159.200 400.000 160.800 400.000 L 162.400 400.000 162.400 321.649 C 162.400 259.452,162.503 243.214,162.900 242.891 C 163.209 242.640,168.665 242.427,177.169 242.334 C 187.597 242.220,190.979 242.064,191.103 241.692 C 191.193 241.421,191.680 241.200,192.184 241.200 C 194.501 241.200,196.916 239.486,197.415 237.489 C 197.567 236.879,198.019 236.204,198.419 235.990 C 198.819 235.776,199.265 235.224,199.411 234.764 C 199.558 234.304,200.259 233.684,200.970 233.387 C 202.440 232.773,202.704 232.484,204.039 230.041 C 204.568 229.074,205.495 227.750,206.100 227.099 C 206.705 226.448,207.200 225.664,207.200 225.358 C 207.200 225.051,207.366 224.800,207.569 224.800 C 207.772 224.800,208.492 224.334,209.169 223.764 L 210.400 222.729 210.387 203.864 C 210.374 183.632,210.418 184.087,208.347 183.045 C 207.861 182.800,207.017 181.790,206.472 180.800 C 205.927 179.810,205.373 178.910,205.240 178.800 C 205.108 178.690,204.554 177.746,204.010 176.703 C 202.029 172.908,199.243 172.433,178.880 172.414 L 163.559 172.400 162.980 171.013 C 162.089 168.880,162.140 142.448,163.043 138.449 L 163.687 135.600 165.243 135.600 C 166.100 135.600,166.800 135.444,166.800 135.254 C 166.800 135.063,168.015 134.820,169.500 134.712 C 172.805 134.473,175.915 132.970,177.264 130.959 C 178.030 129.817,178.381 129.606,179.200 129.792 C 181.565 130.330,199.846 130.513,201.360 130.013 C 203.229 129.396,208.976 123.833,209.812 121.832 C 210.301 120.662,210.400 117.245,210.398 101.513 C 210.395 78.987,210.251 76.349,208.962 75.094 C 208.457 74.602,207.583 73.754,207.022 73.208 C 206.460 72.663,206.000 72.050,206.000 71.847 C 206.000 71.643,205.291 70.869,204.423 70.127 C 203.556 69.385,202.734 68.423,202.596 67.989 C 202.459 67.555,202.171 67.200,201.957 67.200 C 201.593 67.200,199.242 65.685,198.800 65.165 C 197.877 64.080,147.030 63.369,142.000 64.371 " stroke="none" fill="#6c6c6c" fill-rule="evenodd"></path><path id="path3" d="M141.686 62.771 C 136.614 63.115,136.039 63.530,135.717 67.082 L 135.500 69.477 127.752 69.736 C 116.343 70.118,114.849 70.666,113.964 74.795 L 113.550 76.724 110.675 76.985 C 106.722 77.343,103.560 78.051,102.636 78.785 C 100.725 80.301,100.000 81.236,100.000 82.185 C 100.000 83.516,98.233 85.270,96.200 85.959 C 93.908 86.736,93.697 86.989,92.786 90.046 C 92.335 91.561,91.794 92.800,91.583 92.800 C 91.372 92.800,91.200 93.196,91.200 93.681 C 91.200 94.208,90.465 95.256,89.367 96.293 C 87.642 97.922,86.964 101.200,88.352 101.200 C 88.507 101.200,88.887 102.055,89.197 103.100 C 89.507 104.145,89.827 105.225,89.909 105.500 C 89.996 105.790,89.702 106.000,89.209 106.000 C 87.061 106.000,85.200 108.055,85.200 110.426 C 85.200 110.815,84.975 111.208,84.700 111.300 C 84.308 111.430,84.173 117.363,84.077 138.731 L 83.954 165.996 82.877 166.237 C 82.285 166.369,81.170 166.654,80.400 166.870 C 79.630 167.086,76.037 167.408,72.415 167.586 C 68.203 167.793,65.777 168.070,65.682 168.355 C 65.600 168.600,65.030 168.800,64.416 168.800 C 62.926 168.800,60.555 169.819,60.261 170.585 C 60.121 170.951,59.534 171.200,58.813 171.200 C 58.146 171.200,57.600 171.368,57.600 171.573 C 57.600 171.778,57.267 172.052,56.861 172.181 C 56.007 172.452,55.200 174.010,55.200 175.388 C 55.200 176.601,53.024 178.800,51.823 178.800 C 50.614 178.800,48.800 180.258,48.800 181.229 C 48.800 181.653,48.620 182.000,48.400 182.000 C 48.138 182.000,48.000 190.733,48.000 207.400 C 48.000 224.067,48.138 232.800,48.400 232.800 C 48.620 232.800,48.806 233.025,48.813 233.300 C 48.850 234.669,50.442 235.738,52.720 235.922 C 55.266 236.129,55.585 236.401,55.594 238.372 C 55.615 243.187,55.972 243.304,71.300 243.515 L 84.000 243.690 84.000 321.845 C 84.000 399.733,84.003 400.000,84.800 400.000 C 85.691 400.000,86.096 244.605,85.209 243.200 C 84.893 242.700,82.888 242.554,73.154 242.325 C 66.732 242.173,61.370 241.902,61.239 241.721 C 61.107 241.541,60.324 240.944,59.499 240.396 C 58.469 239.713,57.613 238.607,56.776 236.879 C 56.105 235.492,55.250 234.262,54.878 234.144 C 52.643 233.441,51.194 232.475,50.645 231.325 C 50.130 230.245,49.686 199.183,49.981 184.877 C 50.002 183.845,52.731 181.003,54.745 179.915 C 55.443 179.538,56.116 178.908,56.241 178.515 C 57.116 175.759,57.857 174.683,59.572 173.675 L 61.400 172.600 72.600 172.461 C 83.415 172.326,83.828 172.292,84.600 171.470 C 85.379 170.642,85.406 169.918,85.610 143.810 C 85.833 115.404,85.720 117.166,87.612 112.600 C 87.886 111.940,88.796 110.860,89.636 110.200 C 90.476 109.540,91.171 108.775,91.181 108.500 C 91.192 108.225,91.360 108.000,91.557 108.000 C 92.187 108.000,92.491 105.911,92.546 101.200 C 92.602 96.459,93.655 92.800,94.964 92.800 C 95.234 92.800,95.819 92.395,96.263 91.900 C 96.707 91.405,97.550 90.596,98.135 90.103 C 98.721 89.609,99.200 88.949,99.200 88.636 C 99.200 87.850,101.842 85.139,103.940 83.773 C 104.897 83.150,105.834 82.236,106.022 81.741 C 106.472 80.560,107.747 79.762,110.200 79.129 C 111.300 78.846,112.290 78.498,112.400 78.357 C 112.510 78.216,113.177 77.975,113.881 77.823 C 115.406 77.492,117.200 76.169,117.200 75.376 C 117.200 74.635,119.808 73.006,122.036 72.355 C 123.006 72.071,123.914 71.673,124.054 71.471 C 124.193 71.268,126.803 71.008,129.854 70.892 C 135.681 70.672,137.200 70.233,137.200 68.769 C 137.200 67.526,140.396 64.699,142.200 64.347 C 147.411 63.331,197.860 64.060,198.800 65.165 C 199.242 65.685,201.593 67.200,201.957 67.200 C 202.171 67.200,202.459 67.555,202.596 67.989 C 202.734 68.423,203.556 69.385,204.423 70.127 C 205.291 70.869,206.000 71.643,206.000 71.847 C 206.000 72.050,206.460 72.663,207.022 73.208 C 207.583 73.754,208.457 74.602,208.962 75.094 C 210.251 76.349,210.395 78.987,210.398 101.513 C 210.400 117.245,210.301 120.662,209.812 121.832 C 208.976 123.833,203.229 129.396,201.360 130.013 C 199.846 130.513,181.565 130.330,179.200 129.792 C 178.381 129.606,178.030 129.817,177.264 130.959 C 175.915 132.970,172.805 134.473,169.500 134.712 C 168.015 134.820,166.800 135.063,166.800 135.254 C 166.800 135.444,166.100 135.600,165.243 135.600 L 163.687 135.600 163.043 138.449 C 162.140 142.448,162.089 168.880,162.980 171.013 L 163.559 172.400 178.880 172.414 C 199.243 172.433,202.029 172.908,204.010 176.703 C 204.554 177.746,205.108 178.690,205.240 178.800 C 205.373 178.910,205.927 179.810,206.472 180.800 C 207.017 181.790,207.861 182.800,208.347 183.045 C 210.418 184.087,210.374 183.632,210.387 203.864 L 210.400 222.729 209.169 223.764 C 208.492 224.334,207.772 224.800,207.569 224.800 C 207.366 224.800,207.200 225.051,207.200 225.358 C 207.200 225.664,206.705 226.448,206.100 227.099 C 205.495 227.750,204.568 229.074,204.039 230.041 C 202.704 232.484,202.440 232.773,200.970 233.387 C 200.259 233.684,199.558 234.304,199.411 234.764 C 199.265 235.224,198.819 235.776,198.419 235.990 C 198.019 236.204,197.567 236.879,197.415 237.489 C 196.916 239.486,194.501 241.200,192.184 241.200 C 191.680 241.200,191.193 241.421,191.103 241.692 C 190.979 242.064,187.597 242.220,177.169 242.334 C 168.665 242.427,163.209 242.640,162.900 242.891 C 162.076 243.561,162.176 400.000,163.000 400.000 C 163.531 400.000,163.600 391.044,163.600 321.800 L 163.600 243.600 176.100 243.580 C 198.317 243.543,199.004 243.385,199.809 238.112 C 200.048 236.544,200.171 236.406,201.533 236.177 C 203.773 235.800,204.400 235.580,204.400 235.173 C 204.400 234.968,204.641 234.800,204.936 234.800 C 205.619 234.800,206.263 233.387,206.599 231.152 C 206.950 228.820,207.493 228.182,209.391 227.877 C 213.689 227.185,213.622 227.565,213.628 203.800 C 213.635 179.632,213.565 179.296,208.546 179.219 C 207.323 179.200,207.285 179.144,207.005 176.900 C 206.601 173.669,205.903 172.493,204.199 172.173 C 203.430 172.029,202.800 171.751,202.800 171.555 C 202.800 171.360,202.086 171.200,201.214 171.200 C 200.139 171.200,199.018 170.813,197.736 170.000 C 196.695 169.340,195.686 168.800,195.493 168.800 C 195.300 168.800,194.858 168.515,194.510 168.167 C 193.724 167.381,167.797 167.450,167.285 168.240 C 167.128 168.482,166.235 168.780,165.300 168.902 L 163.600 169.124 163.600 154.762 L 163.600 140.400 167.874 140.400 C 173.961 140.400,176.800 138.711,176.800 135.088 C 176.800 133.739,178.245 133.586,190.730 133.612 C 205.653 133.643,207.477 133.346,210.412 130.412 C 213.581 127.243,213.625 126.807,213.606 98.874 C 213.587 69.479,213.939 71.214,207.808 70.309 C 207.363 70.243,206.893 69.756,206.735 69.196 C 206.580 68.648,206.260 67.480,206.023 66.600 C 205.513 64.701,204.313 63.738,201.712 63.142 C 199.506 62.636,148.342 62.320,141.686 62.771 " stroke="none" fill="#2c2c2c" fill-rule="evenodd"></path><path id="path4" d="M0.000 200.000 L 0.000 400.000 42.000 400.000 L 84.000 400.000 84.000 321.845 L 84.000 243.690 71.300 243.515 C 55.972 243.304,55.615 243.187,55.594 238.372 C 55.585 236.401,55.266 236.129,52.720 235.922 C 50.442 235.738,48.850 234.669,48.813 233.300 C 48.806 233.025,48.620 232.800,48.400 232.800 C 48.138 232.800,48.000 224.067,48.000 207.400 C 48.000 190.733,48.138 182.000,48.400 182.000 C 48.620 182.000,48.800 181.653,48.800 181.229 C 48.800 180.258,50.614 178.800,51.823 178.800 C 53.024 178.800,55.200 176.601,55.200 175.388 C 55.200 174.010,56.007 172.452,56.861 172.181 C 57.267 172.052,57.600 171.778,57.600 171.573 C 57.600 171.368,58.146 171.200,58.813 171.200 C 59.534 171.200,60.121 170.951,60.261 170.585 C 60.555 169.819,62.926 168.800,64.416 168.800 C 65.030 168.800,65.600 168.600,65.682 168.355 C 65.777 168.070,68.203 167.793,72.415 167.586 C 76.037 167.408,79.630 167.086,80.400 166.870 C 81.170 166.654,82.285 166.369,82.877 166.237 L 83.954 165.996 84.077 138.731 C 84.173 117.363,84.308 111.430,84.700 111.300 C 84.975 111.208,85.200 110.815,85.200 110.426 C 85.200 108.055,87.061 106.000,89.209 106.000 C 89.702 106.000,89.996 105.790,89.909 105.500 C 89.827 105.225,89.507 104.145,89.197 103.100 C 88.887 102.055,88.507 101.200,88.352 101.200 C 86.964 101.200,87.642 97.922,89.367 96.293 C 90.465 95.256,91.200 94.208,91.200 93.681 C 91.200 93.196,91.372 92.800,91.583 92.800 C 91.794 92.800,92.335 91.561,92.786 90.046 C 93.697 86.989,93.908 86.736,96.200 85.959 C 98.233 85.270,100.000 83.516,100.000 82.185 C 100.000 81.236,100.725 80.301,102.636 78.785 C 103.560 78.051,106.722 77.343,110.675 76.985 L 113.550 76.724 113.964 74.795 C 114.849 70.666,116.343 70.118,127.752 69.736 L 135.500 69.477 135.717 67.082 C 136.148 62.327,136.747 62.256,174.400 62.526 C 204.576 62.742,205.001 62.796,206.023 66.600 C 206.260 67.480,206.580 68.648,206.735 69.196 C 206.893 69.756,207.363 70.243,207.808 70.309 C 213.939 71.214,213.587 69.479,213.606 98.874 C 213.630 135.122,214.592 133.661,190.730 133.612 C 178.245 133.586,176.800 133.739,176.800 135.088 C 176.800 138.711,173.961 140.400,167.874 140.400 L 163.600 140.400 163.600 154.762 L 163.600 169.124 165.300 168.902 C 166.235 168.780,167.128 168.482,167.285 168.240 C 167.797 167.450,193.724 167.381,194.510 168.167 C 194.858 168.515,195.300 168.800,195.493 168.800 C 195.686 168.800,196.695 169.340,197.736 170.000 C 199.018 170.813,200.139 171.200,201.214 171.200 C 202.086 171.200,202.800 171.360,202.800 171.555 C 202.800 171.751,203.430 172.029,204.199 172.173 C 205.903 172.493,206.601 173.669,207.005 176.900 C 207.285 179.144,207.323 179.200,208.546 179.219 C 213.565 179.296,213.635 179.632,213.628 203.800 C 213.622 227.565,213.689 227.185,209.391 227.877 C 207.493 228.182,206.950 228.820,206.599 231.152 C 206.263 233.387,205.619 234.800,204.936 234.800 C 204.641 234.800,204.400 234.968,204.400 235.173 C 204.400 235.580,203.773 235.800,201.533 236.177 C 200.171 236.406,200.048 236.544,199.809 238.112 C 199.004 243.385,198.317 243.543,176.100 243.580 L 163.600 243.600 163.600 321.800 L 163.600 400.000 281.800 400.000 L 400.000 400.000 400.000 200.000 L 400.000 0.000 200.000 0.000 L 0.000 0.000 0.000 200.000 " stroke="none" fill="#141414" fill-rule="evenodd"></path></g></svg>